<svg id="visual" viewBox="0 0 960 540" width="960" height="540" xmlns="http://www.w3.org/2000/svg" xmlns:xlink="http://www.w3.org/1999/xlink" version="1.1"><path d="M0 82L80 82L80 222L160 222L160 168L240 168L240 222L320 222L320 131L400 131L400 66L480 66L480 55L560 55L560 136L640 136L640 244L720 244L720 222L800 222L800 104L880 104L880 82L960 82L960 190L960 0L960 0L880 0L880 0L800 0L800 0L720 0L720 0L640 0L640 0L560 0L560 0L480 0L480 0L400 0L400 0L320 0L320 0L240 0L240 0L160 0L160 0L80 0L80 0L0 0Z" fill="#a3f0e1"></path><path d="M0 114L80 114L80 298L160 298L160 239L240 239L240 276L320 276L320 158L400 158L400 163L480 163L480 87L560 87L560 228L640 228L640 293L720 293L720 260L800 260L800 185L880 185L880 158L960 158L960 217L960 188L960 80L880 80L880 102L800 102L800 220L720 220L720 242L640 242L640 134L560 134L560 53L480 53L480 64L400 64L400 129L320 129L320 220L240 220L240 166L160 166L160 220L80 220L80 80L0 80Z" fill="#a0ede2"></path><path d="M0 206L80 206L80 357L160 357L160 384L240 384L240 309L320 309L320 255L400 255L400 212L480 212L480 206L560 206L560 303L640 303L640 352L720 352L720 374L800 374L800 244L880 244L880 271L960 271L960 330L960 215L960 156L880 156L880 183L800 183L800 258L720 258L720 291L640 291L640 226L560 226L560 85L480 85L480 161L400 161L400 156L320 156L320 274L240 274L240 237L160 237L160 296L80 296L80 112L0 112Z" fill="#9eeae2"></path><path d="M0 287L80 287L80 384L160 384L160 428L240 428L240 363L320 363L320 309L400 309L400 260L480 260L480 282L560 282L560 352L640 352L640 395L720 395L720 401L800 401L800 293L880 293L880 309L960 309L960 401L960 328L960 269L880 269L880 242L800 242L800 372L720 372L720 350L640 350L640 301L560 301L560 204L480 204L480 210L400 210L400 253L320 253L320 307L240 307L240 382L160 382L160 355L80 355L80 204L0 204Z" fill="#9ce7e2"></path><path d="M0 465L80 465L80 471L160 471L160 514L240 514L240 482L320 482L320 519L400 519L400 498L480 498L480 487L560 487L560 487L640 487L640 476L720 476L720 498L800 498L800 482L880 482L880 503L960 503L960 498L960 399L960 307L880 307L880 291L800 291L800 399L720 399L720 393L640 393L640 350L560 350L560 280L480 280L480 258L400 258L400 307L320 307L320 361L240 361L240 426L160 426L160 382L80 382L80 285L0 285Z" fill="#9ae4e2"></path><path d="M0 541L80 541L80 541L160 541L160 541L240 541L240 541L320 541L320 541L400 541L400 541L480 541L480 541L560 541L560 541L640 541L640 541L720 541L720 541L800 541L800 541L880 541L880 541L960 541L960 541L960 496L960 501L880 501L880 480L800 480L800 496L720 496L720 474L640 474L640 485L560 485L560 485L480 485L480 496L400 496L400 517L320 517L320 480L240 480L240 512L160 512L160 469L80 469L80 463L0 463Z" fill="#98e1e1"></path></svg>